<?xml version="1.0" encoding="UTF-8"?>
<svg width="333px" height="80px" viewBox="0 0 333 80" version="1.1" xmlns="http://www.w3.org/2000/svg" xmlns:xlink="http://www.w3.org/1999/xlink">
    <!-- Generator: Sketch 60.1 (88133) - https://sketch.com -->
    <title>Group 5</title>
    <desc>Created with Sketch.</desc>
    <g id="Page-1" stroke="none" stroke-width="1" fill="none" fill-rule="evenodd">
        <g id="Group-5" transform="translate(0.002289, 0.000000)" fill-rule="nonzero">
            <path d="M170.822568,41.0871017 C170.822568,43.4207324 170.348216,45.4544502 169.399497,47.188316 C168.450778,48.9221818 167.065887,50.2689064 165.244782,51.2285302 C163.423678,52.1881541 161.2482,52.6679588 158.718282,52.6679588 L150.997711,52.6679588 L150.997711,29.5716731 L158.718282,29.5716731 C161.2482,29.5716731 163.423678,30.0460255 165.244782,30.9947445 C167.065887,31.9434636 168.450778,33.2792835 169.399497,35.0022445 C170.348216,36.7252055 170.822568,38.753471 170.822568,41.0871017 Z M158.423854,49.2983874 C161.193677,49.2983874 163.320085,48.5786803 164.80314,47.1392445 C166.286195,45.6998088 167.027711,43.682448 167.027711,41.0871017 C167.027711,38.4917554 166.286195,36.4743946 164.80314,35.0349588 C163.320085,33.5955231 161.193677,32.875816 158.423854,32.875816 L154.72714,32.875816 L154.72714,49.2983874 L158.423854,49.2983874 Z M191.334425,42.7882445 C191.334425,43.3989143 191.290807,43.9332422 191.203568,44.3912445 L177.332711,44.3912445 C177.39814,46.2450633 177.910659,47.6190496 178.870282,48.5132445 C179.829906,49.4074395 181.018513,49.8545302 182.43614,49.8545302 C183.679289,49.8545302 184.731588,49.5382953 185.593068,48.905816 C186.454549,48.2733366 186.983424,47.4336783 187.179711,46.386816 L191.170854,46.386816 C190.930948,47.6517747 190.429334,48.7749539 189.665997,49.7563874 C188.90266,50.7378209 187.910336,51.5065989 186.688997,52.0627445 C185.467657,52.6188902 184.104576,52.8969588 182.599711,52.8969588 C180.85494,52.8969588 179.311932,52.5262006 177.97064,51.7846731 C176.629347,51.0431456 175.577048,49.9744896 174.813711,48.5786731 C174.050374,47.1828566 173.668711,45.536254 173.668711,43.638816 C173.668711,41.7631875 174.050374,40.1274896 174.813711,38.7316731 C175.577048,37.3358566 176.629347,36.2672006 177.97064,35.5256731 C179.311932,34.7841456 180.85494,34.4133874 182.599711,34.4133874 C184.366291,34.4133874 185.9093,34.7786933 187.228782,35.509316 C188.548265,36.2399387 189.562398,37.2431667 190.271211,38.5190302 C190.980024,39.7948938 191.334425,41.217951 191.334425,42.7882445 Z M187.572282,42.6901017 C187.615902,41.5123815 187.414166,40.5255104 186.967068,39.7294588 C186.519971,38.9334072 185.90931,38.344556 185.135068,37.9628874 C184.360826,37.5812188 183.515716,37.3903874 182.599711,37.3903874 C181.138466,37.3903874 179.917144,37.8374782 178.935711,38.7316731 C177.954278,39.6258681 177.41995,40.945331 177.332711,42.6901017 L187.572282,42.6901017 Z M202.326425,48.8076731 L207.429854,34.6423874 L211.420997,34.6423874 L204.550997,52.6679588 L200.036425,52.6679588 L193.166425,34.6423874 L197.157568,34.6423874 L202.326425,48.8076731 Z M230.918711,42.7882445 C230.918711,43.3989143 230.875092,43.9332422 230.787854,44.3912445 L216.916997,44.3912445 C216.982426,46.2450633 217.494944,47.6190496 218.454568,48.5132445 C219.414192,49.4074395 220.602799,49.8545302 222.020425,49.8545302 C223.263574,49.8545302 224.315873,49.5382953 225.177354,48.905816 C226.038834,48.2733366 226.56771,47.4336783 226.763997,46.386816 L230.75514,46.386816 C230.515234,47.6517747 230.01362,48.7749539 229.250282,49.7563874 C228.486945,50.7378209 227.494622,51.5065989 226.273282,52.0627445 C225.051943,52.6188902 223.688861,52.8969588 222.183997,52.8969588 C220.439226,52.8969588 218.896218,52.5262006 217.554925,51.7846731 C216.213633,51.0431456 215.161334,49.9744896 214.397997,48.5786731 C213.63466,47.1828566 213.252997,45.536254 213.252997,43.638816 C213.252997,41.7631875 213.63466,40.1274896 214.397997,38.7316731 C215.161334,37.3358566 216.213633,36.2672006 217.554925,35.5256731 C218.896218,34.7841456 220.439226,34.4133874 222.183997,34.4133874 C223.950577,34.4133874 225.493585,34.7786933 226.813068,35.509316 C228.132551,36.2399387 229.146684,37.2431667 229.855497,38.5190302 C230.56431,39.7948938 230.918711,41.217951 230.918711,42.7882445 Z M227.156568,42.6901017 C227.200187,41.5123815 226.998451,40.5255104 226.551354,39.7294588 C226.104256,38.9334072 225.493596,38.344556 224.719354,37.9628874 C223.945112,37.5812188 223.100001,37.3903874 222.183997,37.3903874 C220.722751,37.3903874 219.50143,37.8374782 218.519997,38.7316731 C217.538563,39.6258681 217.004235,40.945331 216.916997,42.6901017 L227.156568,42.6901017 Z M238.246711,28.4593874 L238.246711,52.6679588 L234.517282,52.6679588 L234.517282,28.4593874 L238.246711,28.4593874 Z M251.005282,34.4133874 C252.750053,34.4133874 254.320323,34.7841456 255.71614,35.5256731 C257.111956,36.2672006 258.202421,37.3358566 258.987568,38.7316731 C259.772715,40.1274896 260.165282,41.7631875 260.165282,43.638816 C260.165282,45.536254 259.772715,47.1828566 258.987568,48.5786731 C258.202421,49.9744896 257.111956,51.0431456 255.71614,51.7846731 C254.320323,52.5262006 252.750053,52.8969588 251.005282,52.8969588 C249.260512,52.8969588 247.695694,52.5262006 246.310782,51.7846731 C244.925871,51.0431456 243.835405,49.9690373 243.039354,48.562316 C242.243302,47.1555946 241.845282,45.5144444 241.845282,43.638816 C241.845282,41.7631875 242.243302,40.1274896 243.039354,38.7316731 C243.835405,37.3358566 244.925871,36.2672006 246.310782,35.5256731 C247.695694,34.7841456 249.260512,34.4133874 251.005282,34.4133874 Z M251.005282,37.6521017 C250.045659,37.6521017 249.162382,37.8701947 248.355425,38.3063874 C247.548469,38.74258 246.899642,39.4132162 246.408925,40.318316 C245.918209,41.2234157 245.672854,42.330238 245.672854,43.638816 C245.672854,44.9692036 245.918209,46.0814782 246.408925,46.9756731 C246.899642,47.8698681 247.548469,48.5350519 248.355425,48.9712445 C249.162382,49.4074372 250.045659,49.6255302 251.005282,49.6255302 C251.964906,49.6255302 252.848183,49.4074372 253.65514,48.9712445 C254.462096,48.5350519 255.110923,47.8698681 255.60164,46.9756731 C256.092356,46.0814782 256.337711,44.9692036 256.337711,43.638816 C256.337711,42.330238 256.092356,41.2234157 255.60164,40.318316 C255.110923,39.4132162 254.462096,38.74258 253.65514,38.3063874 C252.848183,37.8701947 251.964906,37.6521017 251.005282,37.6521017 Z M274.101568,34.4133874 C275.671862,34.4133874 277.07311,34.7841456 278.305354,35.5256731 C279.537598,36.2672006 280.50266,37.3358566 281.200568,38.7316731 C281.898476,40.1274896 282.247425,41.7631875 282.247425,43.638816 C282.247425,45.536254 281.898476,47.1828566 281.200568,48.5786731 C280.50266,49.9744896 279.537598,51.0431456 278.305354,51.7846731 C277.07311,52.5262006 275.671862,52.8969588 274.101568,52.8969588 C272.465846,52.8969588 271.07005,52.4934867 269.91414,51.6865302 C268.758229,50.8795738 267.951285,49.8109179 267.493282,48.4805302 L267.493282,61.2391017 L263.763854,61.2391017 L263.763854,34.6423874 L267.493282,34.6423874 L267.493282,38.829816 C267.951285,37.4994284 268.758229,36.4307724 269.91414,35.623816 C271.07005,34.8168595 272.465846,34.4133874 274.101568,34.4133874 Z M272.956568,37.684816 C271.909706,37.684816 270.971906,37.9301707 270.14314,38.4208874 C269.314374,38.9116041 268.660094,39.6095019 268.180282,40.5146017 C267.700471,41.4197014 267.460568,42.4610958 267.460568,43.638816 C267.460568,44.8383458 267.700471,45.8851924 268.180282,46.7793874 C268.660094,47.6735823 269.314374,48.3660278 270.14314,48.8567445 C270.971906,49.3474613 271.909706,49.592816 272.956568,49.592816 C274.6141,49.592816 275.944468,49.0639403 276.947711,48.0061731 C277.950954,46.9484059 278.452568,45.4926348 278.452568,43.638816 C278.452568,41.8068068 277.950954,40.356488 276.947711,39.287816 C275.944468,38.219144 274.6141,37.684816 272.956568,37.684816 Z M302.595711,42.7882445 C302.595711,43.3989143 302.552092,43.9332422 302.464854,44.3912445 L288.593997,44.3912445 C288.659426,46.2450633 289.171944,47.6190496 290.131568,48.5132445 C291.091192,49.4074395 292.279799,49.8545302 293.697425,49.8545302 C294.940574,49.8545302 295.992873,49.5382953 296.854354,48.905816 C297.715834,48.2733366 298.24471,47.4336783 298.440997,46.386816 L302.43214,46.386816 C302.192234,47.6517747 301.69062,48.7749539 300.927282,49.7563874 C300.163945,50.7378209 299.171622,51.5065989 297.950282,52.0627445 C296.728943,52.6188902 295.365861,52.8969588 293.860997,52.8969588 C292.116226,52.8969588 290.573218,52.5262006 289.231925,51.7846731 C287.890633,51.0431456 286.838334,49.9744896 286.074997,48.5786731 C285.31166,47.1828566 284.929997,45.536254 284.929997,43.638816 C284.929997,41.7631875 285.31166,40.1274896 286.074997,38.7316731 C286.838334,37.3358566 287.890633,36.2672006 289.231925,35.5256731 C290.573218,34.7841456 292.116226,34.4133874 293.860997,34.4133874 C295.627577,34.4133874 297.170585,34.7786933 298.490068,35.509316 C299.809551,36.2399387 300.823684,37.2431667 301.532497,38.5190302 C302.24131,39.7948938 302.595711,41.217951 302.595711,42.7882445 Z M298.833568,42.6901017 C298.877187,41.5123815 298.675451,40.5255104 298.228354,39.7294588 C297.781256,38.9334072 297.170596,38.344556 296.396354,37.9628874 C295.622112,37.5812188 294.777001,37.3903874 293.860997,37.3903874 C292.399751,37.3903874 291.17843,37.8374782 290.196997,38.7316731 C289.215563,39.6258681 288.681235,40.945331 288.593997,42.6901017 L298.833568,42.6901017 Z M309.923711,38.1755302 C310.534381,36.9978101 311.406753,36.0654623 312.540854,35.3784588 C313.674955,34.6914554 314.983513,34.3479588 316.466568,34.3479588 L316.466568,38.4045302 L315.354282,38.4045302 C313.71856,38.4045302 312.404549,38.8025501 311.412211,39.5986017 C310.419873,40.3946533 309.923711,41.7086639 309.923711,43.5406731 L309.923711,52.6679588 L306.194282,52.6679588 L306.194282,34.6423874 L309.923711,34.6423874 L309.923711,38.1755302 Z M325.168568,34.4133874 C327.284103,34.4133874 328.979776,34.9531677 330.25564,36.0327445 C331.531503,37.1123214 332.311186,38.5571879 332.594711,40.3673874 L329.061568,40.3673874 C328.908901,39.3859539 328.489072,38.5953666 327.802068,37.9956017 C327.115065,37.3958368 326.204526,37.0959588 325.070425,37.0959588 C324.132611,37.0959588 323.407452,37.3195042 322.894925,37.7666017 C322.382399,38.2136992 322.12614,38.8189074 322.12614,39.5822445 C322.12614,40.149295 322.311519,40.6072904 322.682282,40.9562445 C323.053046,41.3051987 323.516494,41.577815 324.07264,41.7741017 C324.559267,41.9458525 325.225389,42.1342989 326.071021,42.3394451 L326.444425,42.4283874 C327.796623,42.7337223 328.89254,43.0499572 329.732211,43.3771017 C330.571882,43.7042462 331.291589,44.2222172 331.891354,44.9310302 C332.491119,45.6398433 332.790997,46.6049051 332.790997,47.8262445 C332.790997,49.3311092 332.218502,50.5524303 331.073497,51.4902445 C329.928491,52.4280587 328.385483,52.8969588 326.444425,52.8969588 C324.198033,52.8969588 322.382408,52.3735355 320.997497,51.3266731 C319.612585,50.2798107 318.778379,48.8185872 318.494854,46.9429588 L322.12614,46.9429588 C322.235188,47.9243923 322.671374,48.720432 323.434711,49.3311017 C324.198048,49.9417714 325.201276,50.2471017 326.444425,50.2471017 C327.33862,50.2471017 328.04197,50.0126516 328.554497,49.5437445 C329.067023,49.0748374 329.323282,48.4805338 329.323282,47.760816 C329.323282,47.1283366 329.126999,46.6267226 328.734425,46.2559588 C328.341852,45.8851951 327.851143,45.5962218 327.262282,45.3890302 C326.673422,45.1818387 325.866478,44.969198 324.841425,44.7511017 C323.532847,44.4457668 322.469644,44.1404365 321.651782,43.8351017 C320.833921,43.5297668 320.136023,43.0336051 319.558068,42.3466017 C318.980113,41.6595982 318.69114,40.7272504 318.69114,39.5495302 C318.69114,38.0228559 319.263634,36.7851778 320.40864,35.8364588 C321.553645,34.8877398 323.140272,34.4133874 325.168568,34.4133874 Z" id="Developers" fill="#084999"></path>
            <path d="M74.7888128,17.2660912 L74.7888128,22.9140912 L73.6608128,22.9140912 L73.6608128,17.2660912 L74.7888128,17.2660912 Z M80.5968128,22.9140912 L79.4688128,22.9140912 L76.9408128,19.0740912 L76.9408128,22.9140912 L75.8128128,22.9140912 L75.8128128,17.2660912 L76.9408128,17.2660912 L79.4688128,21.1380912 L79.4688128,17.2660912 L80.5968128,17.2660912 L80.5968128,22.9140912 Z M85.4608128,17.2660912 L85.4608128,18.1620912 L83.9008128,18.1620912 L83.9008128,22.9140912 L82.7728128,22.9140912 L82.7728128,18.1620912 L81.2208128,18.1620912 L81.2208128,17.2660912 L85.4608128,17.2660912 Z M87.2128128,18.1620912 L87.2128128,19.6260912 L89.2128128,19.6260912 L89.2128128,20.4900912 L87.2128128,20.4900912 L87.2128128,22.0100912 L89.4528128,22.0100912 L89.4528128,22.9140912 L86.0848128,22.9140912 L86.0848128,17.2660912 L89.4528128,17.2660912 L89.4528128,18.1620912 L87.2128128,18.1620912 Z M92.9008128,17.2100912 C93.5888162,17.2100912 94.1594772,17.3794228 94.6128128,17.7180912 C95.0661484,18.0567596 95.3568122,18.5140883 95.4848128,19.0900912 L94.3008128,19.0900912 C94.1888122,18.8340899 94.0114807,18.630092 93.7688128,18.4780912 C93.5261449,18.3260904 93.2394811,18.2500912 92.9088128,18.2500912 C92.5834778,18.2500912 92.2954807,18.3247571 92.0448128,18.4740912 C91.7941449,18.6234253 91.5994802,18.8367565 91.4608128,19.1140912 C91.3221454,19.3914259 91.2528128,19.716756 91.2528128,20.0900912 C91.2528128,20.6820942 91.4114779,21.1434229 91.7288128,21.4740912 C92.0461477,21.8047595 92.4794767,21.9700912 93.0288128,21.9700912 C93.4341482,21.9700912 93.7821447,21.8500924 94.0728128,21.6100912 C94.3634809,21.37009 94.551479,21.03676 94.6368128,20.6100912 L92.7248128,20.6100912 L92.7248128,19.8020912 L95.5808128,19.8020912 L95.5808128,20.8900912 C95.5008124,21.2634264 95.344814,21.607423 95.1128128,21.9220912 C94.8808116,22.2367594 94.5768147,22.4887569 94.2008128,22.6780912 C93.8248109,22.8674255 93.3941486,22.9620912 92.9088128,22.9620912 C92.3541434,22.9620912 91.8648149,22.8407591 91.4408128,22.5980912 C91.0168107,22.3554233 90.688814,22.01676 90.4568128,21.5820912 C90.2248116,21.1474224 90.1088128,20.650094 90.1088128,20.0900912 C90.1088128,19.5300884 90.2248116,19.03276 90.4568128,18.5980912 C90.688814,18.1634224 91.0154774,17.8234258 91.4368128,17.5780912 C91.8581482,17.3327566 92.3461434,17.2100912 92.9008128,17.2100912 Z M99.3728128,22.9140912 L98.0528128,20.7140912 L97.5568128,20.7140912 L97.5568128,22.9140912 L96.4288128,22.9140912 L96.4288128,17.2660912 L98.5808128,17.2660912 C99.2368161,17.2660912 99.7368111,17.4260896 100.080813,17.7460912 C100.424815,18.0660928 100.596813,18.4874219 100.596813,19.0100912 C100.596813,19.43676 100.478147,19.7940898 100.240813,20.0820912 C100.003478,20.3700926 99.660815,20.5620907 99.2128128,20.6580912 L100.620813,22.9140912 L99.3728128,22.9140912 Z M97.5568128,19.9380912 L98.4848128,19.9380912 C99.1301494,19.9380912 99.4528128,19.6527607 99.4528128,19.0820912 C99.4528128,18.8100898 99.3741469,18.598092 99.2168128,18.4460912 C99.0594787,18.2940904 98.8154811,18.2180912 98.4848128,18.2180912 L97.5568128,18.2180912 L97.5568128,19.9380912 Z M104.796813,21.7780912 L102.532813,21.7780912 L102.132813,22.9140912 L100.940813,22.9140912 L103.020813,17.3300912 L104.308813,17.3300912 L106.380813,22.9140912 L105.188813,22.9140912 L104.796813,21.7780912 Z M104.492813,20.9220912 L103.660813,18.5380912 L102.828813,20.9220912 L104.492813,20.9220912 Z M110.828813,17.2660912 L110.828813,18.1620912 L109.268813,18.1620912 L109.268813,22.9140912 L108.140813,22.9140912 L108.140813,18.1620912 L106.588813,18.1620912 L106.588813,17.2660912 L110.828813,17.2660912 Z M112.580813,18.1620912 L112.580813,19.6260912 L114.580813,19.6260912 L114.580813,20.4900912 L112.580813,20.4900912 L112.580813,22.0100912 L114.820813,22.0100912 L114.820813,22.9140912 L111.452813,22.9140912 L111.452813,17.2660912 L114.820813,17.2660912 L114.820813,18.1620912 L112.580813,18.1620912 Z M120.620813,20.0820912 C120.620813,20.642094 120.503481,21.1354224 120.268813,21.5620912 C120.034145,21.98876 119.694148,22.3207567 119.248813,22.5580912 C118.803477,22.7954257 118.274149,22.9140912 117.660813,22.9140912 L115.652813,22.9140912 L115.652813,17.2660912 L117.660813,17.2660912 C118.274149,17.2660912 118.803477,17.38209 119.248813,17.6140912 C119.694148,17.8460924 120.034145,18.1740891 120.268813,18.5980912 C120.503481,19.0220933 120.620813,19.516755 120.620813,20.0820912 Z M117.564813,21.9060912 C118.172816,21.9060912 118.643478,21.7460928 118.976813,21.4260912 C119.310148,21.1060896 119.476813,20.6580941 119.476813,20.0820912 C119.476813,19.500755 119.310148,19.0500928 118.976813,18.7300912 C118.643478,18.4100896 118.172816,18.2500912 117.564813,18.2500912 L116.780813,18.2500912 L116.780813,21.9060912 L117.564813,21.9060912 Z M130.620813,17.2660912 L129.236813,22.9140912 L127.844813,22.9140912 L126.788813,18.8180912 L125.724813,22.9140912 L124.340813,22.9140912 L122.956813,17.2660912 L124.180813,17.2660912 L125.044813,21.6420912 L126.164813,17.2660912 L127.404813,17.2660912 L128.532813,21.6420912 L129.396813,17.2660912 L130.620813,17.2660912 Z M132.516813,17.2660912 L132.516813,22.9140912 L131.388813,22.9140912 L131.388813,17.2660912 L132.516813,17.2660912 Z M137.380813,17.2660912 L137.380813,18.1620912 L135.820813,18.1620912 L135.820813,22.9140912 L134.692813,22.9140912 L134.692813,18.1620912 L133.140813,18.1620912 L133.140813,17.2660912 L137.380813,17.2660912 Z M142.684813,17.2660912 L142.684813,22.9140912 L141.548813,22.9140912 L141.548813,20.4580912 L139.132813,20.4580912 L139.132813,22.9140912 L138.004813,22.9140912 L138.004813,17.2660912 L139.132813,17.2660912 L139.132813,19.5540912 L141.548813,19.5540912 L141.548813,17.2660912 L142.684813,17.2660912 Z" id="INTEGRATEDWITH" fill="#084999"></path>
            <path d="M38.8600858,33.3745351 L38.8600858,29.6228898 L32.0457797,29.6228898 L32.0457797,52.6271817 L39.0271817,52.6271817 L39.0271817,39.8786838 C40.2235575,37.2150691 42.2420601,35.8828803 45.0826896,35.8821173 C45.911458,35.8781326 46.7384004,35.9602131 47.5502146,36.1270386 L47.5502146,29.52103 C46.9512637,29.3035765 46.2237482,29.1948498 45.3676681,29.1948498 C43.0000954,29.1948498 40.8309013,30.5880782 38.8600858,33.3745351 Z" id="Path" fill="#134B97"></path>
            <path d="M69.8804006,49.5908441 C72.1304721,47.3018598 73.2555079,44.4711493 73.2555079,41.0987124 C73.2555079,37.7545064 72.1304721,34.9337148 69.8804006,32.6363376 C67.630329,30.3389604 64.8366237,29.1902718 61.4992847,29.1902718 C58.1619456,29.1902718 55.3720553,30.3443014 53.1296137,32.6523605 C50.8871722,34.9604196 49.7655699,37.7758703 49.7648069,41.0987124 C49.7648069,44.4215546 50.8864092,47.2400572 53.1296137,49.5542203 C55.3728183,51.8683834 58.1627086,53.0258464 61.4992847,53.0266155 C64.8366237,53.0296614 67.630329,51.8844063 69.8804006,49.5908441 Z M57.8094421,45.0723891 C56.8511206,43.9935145 56.3719599,42.6704816 56.3719599,41.1032904 C56.3719599,39.562804 56.8511206,38.2500715 57.8094421,37.165093 C58.7677635,36.0801144 59.9980925,35.5372437 61.5004292,35.5364807 C63.0020029,35.5364807 64.2357654,36.0793515 65.2017167,37.165093 C66.1676681,38.2508345 66.6502623,39.563567 66.6495002,41.1032904 C66.6495002,42.6575107 66.1669051,43.9771102 65.2017167,45.0620887 C64.2365284,46.1470672 63.0027659,46.6895565 61.5004292,46.6895565 C59.9980925,46.6895565 58.7677635,46.1505007 57.8094421,45.0723891 Z" id="Shape" fill="#134B97"></path>
            <path d="M113.951359,29.1948498 C110.716261,29.1948498 107.97711,30.323319 105.733906,32.5802575 C103.490701,34.837196 102.369099,37.678207 102.369099,41.1032904 C102.369099,44.6130663 103.443014,47.4777301 105.590844,49.6972818 C107.738674,51.9168336 110.552599,53.0281354 114.032618,53.0311874 C116.370434,53.0311874 118.368717,52.5947544 120.027468,51.7218884 C121.7529,50.7964928 123.299631,49.5710446 124.595136,48.1030043 L119.53877,45.2749642 C118.234049,46.4652361 116.534859,47.060372 114.441202,47.060372 C111.437291,47.060372 109.670196,45.7281831 109.139914,43.0638054 L124.963662,43.0638054 C124.967253,42.8762645 124.981007,42.6890562 125.004864,42.5030043 C125.031569,42.2657129 125.051788,42.0482594 125.065522,41.8506438 C125.079256,41.6537911 125.086123,41.4878398 125.086123,41.3516452 C125.086123,37.9807344 124.046161,35.1126371 121.966237,32.7473534 C119.886314,30.3820696 117.214688,29.1979018 113.951359,29.1948498 Z M109.221173,38.9230329 C109.560706,37.6465427 110.138293,36.6615165 110.953934,35.9679542 C111.745685,35.2829892 112.761481,34.9127572 113.808298,34.9276109 C114.841392,34.9276109 115.776061,35.3300906 116.612303,36.1350501 C117.448546,36.9400095 117.948307,37.8697186 118.111588,38.9241774 L109.221173,38.9230329 Z" id="Shape" fill="#134B97"></path>
            <path d="M141.344778,29.1948498 C138.979495,29.1948498 136.811445,30.5884597 134.840629,33.3756795 L134.840629,29.6228898 L128.029757,29.6228898 L128.029757,52.6271817 L135.003147,52.6271817 L135.003147,39.8786838 C136.199523,37.2150691 138.218026,35.8828803 141.058655,35.8821173 C141.887424,35.8781161 142.714369,35.9601968 143.52618,36.1270386 L143.52618,29.52103 C142.924177,29.3035765 142.197043,29.1948498 141.344778,29.1948498 Z" id="Path" fill="#134B97"></path>
            <path d="M25.3276109,25.2829757 C25.4310211,24.4917183 25.4929085,23.6955868 25.5130186,22.8978541 L25.5221745,22.8978541 C25.5221745,13.8987124 32.8469242,6.57739628 41.8426323,6.57739628 C50.8383405,6.57739628 58.1630901,13.9021459 58.1630901,22.8978541 L64.7404864,22.8978541 C64.7404864,10.2718169 54.4686695,0 41.8426323,0 C29.3482117,0 19.1656652,10.0600858 18.9527897,22.5052933 L18.9413448,22.5052933 C18.9364498,23.1533786 18.8909626,23.8005208 18.8051502,24.4429185 C18.5041488,26.7799714 17.6320458,30.1493562 15.1874106,32.9270386 C13.2749642,35.1015737 10.6586552,36.5733906 7.38082976,37.3402003 L7.38082976,22.0577969 L-2.84217094e-14,22.0577969 L-2.84217094e-14,52.6237482 L7.38197425,52.6237482 L7.38197425,44.0595136 C9.55004667,43.6953391 11.6592171,43.040915 13.6526466,42.113877 L20.3090129,52.6226037 L29.1387697,52.6226037 L19.3979971,38.0486409 C19.6452074,37.7957082 19.8889843,37.5381974 20.1247496,37.2715308 C23.6669528,33.2452074 24.9087268,28.5321888 25.3276109,25.2829757 Z" id="Path" fill="#134B97"></path>
            <path d="M99.423176,59.3499285 L99.423176,29.6228898 L92.7759657,29.6228898 L92.7759657,31.5811159 C91.2125894,29.9902718 89.234907,29.1948498 86.8429185,29.1948498 C83.8924177,29.1948498 81.3363853,30.3042442 79.1748212,32.5230329 C77.013257,34.7418216 75.932475,37.4935622 75.932475,40.7782546 C75.932475,44.0461612 77.0388174,46.7700525 79.2515021,48.9499285 C81.4641869,51.1298045 83.9927515,52.219361 86.837196,52.218598 C89.1475441,52.2048641 91.1526943,51.5685265 92.8526466,50.3095851 C92.8526466,50.3553648 92.8526466,57.241774 92.8526466,59.351073 L92.8526466,59.351073 C92.7831148,67.0487949 86.5232148,73.2524061 78.8251788,73.2524061 C71.1271429,73.2524061 64.8672428,67.0487949 64.797711,59.351073 L58.2214592,59.351073 C58.2214592,70.7124464 67.4643777,79.9519313 78.8223176,79.9519313 C89.9788269,79.9519313 99.0866953,71.0374821 99.411731,59.9576538 L99.4197425,59.9576538 L99.4197425,59.6440629 C99.4197425,59.5444921 99.4277539,59.4472103 99.4277539,59.3476395 L99.423176,59.3499285 Z M91.4002861,44.6775393 C90.4556986,45.7197902 89.2150691,46.2409156 87.6783977,46.2409156 C86.1691941,46.2409156 84.9354316,45.7197902 83.9771102,44.6775393 C83.0187887,43.6352885 82.539628,42.3381974 82.539628,40.7862661 C82.539628,39.2358608 83.0187887,37.9387697 83.9771102,36.8949928 C84.9354316,35.851216 86.1691941,35.3297091 87.6783977,35.3304713 C89.2005722,35.3304713 90.4377682,35.851979 91.3899857,36.8949928 C92.3422031,37.9380067 92.8179304,39.2350978 92.8171683,40.7862661 C92.8179304,42.3374344 92.3452551,43.6345255 91.3991416,44.6775393 L91.4002861,44.6775393 Z" id="Shape" fill="#134B97"></path>
            <path d="M104.559657,70.0646638 C104.530403,71.439041 103.407879,72.5379265 102.03319,72.5379265 C100.658502,72.5379265 99.5359775,71.439041 99.5067239,70.0646638 C99.5067239,68.7004292 100.63176,67.6051502 102.040629,67.6051502 C103.449499,67.6051502 104.559657,68.7038627 104.559657,70.0646638 Z M100.136195,70.0646638 C100.136195,71.1587983 100.946495,72.0286123 102.055508,72.0286123 C103.134764,72.0286123 103.930186,71.1587983 103.930186,70.0829757 C103.930186,69.0071531 103.135908,68.1041488 102.040629,68.1041488 C100.945351,68.1041488 100.137339,68.9854077 100.137339,70.0646638 L100.136195,70.0646638 Z M101.650358,71.3545064 L101.078112,71.3545064 L101.078112,68.8949928 C101.389782,68.8403558 101.705937,68.8154466 102.022318,68.8206009 C102.486981,68.8206009 102.697568,68.8949928 102.877253,69.0002861 C103.034755,69.1348778 103.123073,69.3333834 103.117597,69.5404864 C103.117597,69.8105866 102.908155,70.0200286 102.608298,70.1127325 L102.608298,70.1424893 C102.847496,70.2329041 102.982546,70.4125894 103.058083,70.7422031 C103.133619,71.1164521 103.172532,71.2663805 103.237768,71.3567954 L102.623176,71.3567954 C102.547639,71.2663805 102.508727,71.0420601 102.428612,70.7570815 C102.383977,70.4869814 102.234049,70.3668097 101.918169,70.3668097 L101.648069,70.3668097 L101.650358,71.3545064 Z M101.665236,69.960515 L101.935336,69.960515 C102.250072,69.960515 102.507582,69.8552217 102.507582,69.6011445 C102.507582,69.3722461 102.342775,69.2257511 101.983405,69.2257511 C101.877691,69.2233457 101.772059,69.2333327 101.66867,69.2555079 L101.665236,69.960515 Z" id="Shape" fill="#134B97"></path>
        </g>
    </g>
</svg>